# File created by Blade
# Date/Time:  Wed Apr 08 17:04:14 2015
#---------------------------------------------------------
:version 1.10
:name HOM
:units
  mass 1.0
  length 1.000000
  angle deg
:documentation
     Acclaim Skeleton File
:root
   axis xyz
   order TX TY TZ RX RY RZ
   position 0.000000 0.000000 0.000000
   orientation 0 0 0
:bonedata
   begin
      id 1
      name Spine_dum
      direction 0.000000 1.000000 0.000000
      length 5.893853
      axis 0.0 0.0 0.0 xyz
   end
   begin
      id 2
      name LeftUpLeg_dum
      direction 1.000000 0.000000 0.000000
      length 3.697939
      axis 0.0 0.0 0.0 xyz
   end
   begin
      id 3
      name RightUpLeg_dum
      direction -1.000000 0.000000 0.000000
      length 3.697939
      axis 0.0 0.0 0.0 xyz
   end
   begin
      id 4
      name Spine
      direction 0.000000 1.000000 0.000000
      length 0.000000
      axis 0.0 0.0 0.0 xyz
      dof rx ry rz
   end
   begin
      id 5
      name Spine_dum1
      direction 0.000000 1.000000 0.000000
      length 16.447146
      axis 0.0 0.0 0.0 xyz
   end
   begin
      id 6
      name Spine_dum2
      direction 0.000000 1.000000 0.000000
      length 10.900383
      axis 0.0 0.0 0.0 xyz
   end
   begin
      id 7
      name Spine_dum3
      direction 0.000000 1.000000 0.000000
      length 10.900383
      axis 0.0 0.0 0.0 xyz
   end
   begin
      id 8
      name Head
      direction 0.000000 1.000000 0.000000
      length 4.527550
      axis 0.0 0.0 0.0 xyz
      dof rx ry rz
   end
   begin
      id 9
      name LeftShoulder
      direction 1.000000 0.000000 0.000000
      length 8.219464
      axis 0.0 0.0 -90.0 xyz
      dof rx ry rz
   end
   begin
      id 10
      name LeftArm
      direction 1.000000 0.000000 0.000000
      length 11.094937
      axis 0.0 0.0 -90.0 xyz
      dof rx ry rz
   end
   begin
      id 11
      name LeftForeArm
      direction 1.000000 0.000000 0.000000
      length 9.103875
      axis 0.0 0.0 -90.0 xyz
      dof ry rz rx
   end
   begin
      id 12
      name LeftHand
      direction 0.000000 0.000000 0.000000
      length 0.000000
      axis 0.0 0.0 -90.0 xyz
      dof rx ry rz
   end
   begin
      id 13
      name LeftHand_dum1
      direction 0.000000 0.000000 0.000000
      length 0.000000
      axis 0.0 0.0 -90.0 xyz
   end
   begin
      id 14
      name LeftHand_dum2
      direction 1.000000 0.000000 0.000000
      length 3.937000
      axis 0.0 0.0 -90.0 xyz
   end
   begin
      id 15
      name LeftHandThumb1
      direction 0.000000 0.000000 1.000000
      length 3.937000
      axis 0.0 0.0 -90.0 xyz
      dof rx rz ry
   end
   begin
      id 16
      name RightShoulder
      direction -1.000000 0.000000 0.000000
      length 8.219464
      axis 0.0 0.0 90.0 xyz
      dof rx ry rz
   end
   begin
      id 17
      name RightArm
      direction -1.000000 0.000000 0.000000
      length 11.094937
      axis 0.0 0.0 90.0 xyz
      dof rx ry rz
   end
   begin
      id 18
      name RightForeArm
      direction -1.000000 0.000000 0.000000
      length 9.103875
      axis 0.0 0.0 90.0 xyz
      dof ry rz rx
   end
   begin
      id 19
      name RightHand
      direction 0.000000 0.000000 0.000000
      length 0.000000
      axis 0.0 0.0 90.0 xyz
      dof rx ry rz
   end
   begin
      id 20
      name RightHand_dum1
      direction 0.000000 0.000000 0.000000
      length 0.000000
      axis 0.0 0.0 90.0 xyz
   end
   begin
      id 21
      name RightHand_dum2
      direction -1.000000 0.000000 0.000000
      length 3.937000
      axis 0.0 0.0 90.0 xyz
   end
   begin
      id 22
      name RightHandThumb1
      direction 0.000000 0.000000 1.000000
      length 3.937000
      axis 0.0 0.0 90.0 xyz
      dof rx rz ry
   end
   begin
      id 23
      name LeftUpLeg
      direction 0.000000 -1.000000 0.000000
      length 16.181467
      axis 0.0 0.0 0.0 xyz
      dof rx ry rz
   end
   begin
      id 24
      name LeftLeg
      direction 0.000000 -1.000000 0.000000
      length 16.501392
      axis 0.0 0.0 0.0 xyz
      dof rx ry rz
   end
   begin
      id 25
      name LeftFoot
      direction 0.000000 -0.258819 0.965926
      length 6.408245
      axis 15.0 0.0 0.0 xyz
      dof rx ry rz
   end
   begin
      id 26
      name LeftToeBase
      direction 0.000000 0.000000 1.000000
      length 2.952750
      axis 0.0 0.0 0.0 xyz
      dof rx ry rz
   end
   begin
      id 27
      name RightUpLeg
      direction 0.000000 -1.000000 0.000000
      length 16.181467
      axis 0.0 0.0 0.0 xyz
      dof rx ry rz
   end
   begin
      id 28
      name RightLeg
      direction 0.000000 -1.000000 0.000000
      length 16.501392
      axis 0.0 0.0 0.0 xyz
      dof rx ry rz
   end
   begin
      id 29
      name RightFoot
      direction 0.000000 -0.258819 0.965926
      length 6.408245
      axis 15.0 0.0 0.0 xyz
      dof rx ry rz
   end
   begin
      id 30
      name RightToeBase
      direction 0.000000 0.000000 1.000000
      length 2.952750
      axis 0.0 0.0 0.0 xyz
      dof rx ry rz
   end
:hierarchy
   begin
      root Spine_dum LeftUpLeg_dum RightUpLeg_dum
      Spine_dum Spine
      LeftUpLeg_dum LeftUpLeg
      RightUpLeg_dum RightUpLeg
      Spine Spine_dum1 Spine_dum2 Spine_dum3
      Spine_dum1 Head
      Spine_dum2 LeftShoulder
      Spine_dum3 RightShoulder
      LeftShoulder LeftArm
      LeftArm LeftForeArm
      LeftForeArm LeftHand
      LeftHand LeftHand_dum1 LeftHand_dum2
      LeftHand_dum1 LeftHandThumb1
      RightShoulder RightArm
      RightArm RightForeArm
      RightForeArm RightHand
      RightHand RightHand_dum1 RightHand_dum2
      RightHand_dum1 RightHandThumb1
      LeftUpLeg LeftLeg
      LeftLeg LeftFoot
      LeftFoot LeftToeBase
      RightUpLeg RightLeg
      RightLeg RightFoot
      RightFoot RightToeBase
   end

# File created by Blade
# Date/Time:  Wed Apr 08 17:04:22 2015
# Frame Rate: 120.000 fps
#------------------------------------------------------
:FULLY-SPECIFIED
:DEGREES
689
root 3.638665 35.908410 4.079665 -147.340342 -77.394640 174.007132
Spine -25.531301 -15.289977 -2.678824
Head 54.999393 -14.585576 -15.503766
LeftShoulder 17.044758 -4.816385 30.784029
LeftArm 107.924191 41.956806 -37.447245
LeftForeArm 5.880330 -0.000000 92.692128
LeftHand -11.400776 -0.000000 -11.290392
LeftHandThumb1 -26.253704 0.000000 33.147579
RightShoulder -33.020333 -75.863970 4.101997
RightArm 51.807623 -38.080969 11.748812
RightForeArm -7.942331 -0.000000 85.575283
RightHand -1.846091 -0.000000 35.311453
RightHandThumb1 -24.326973 -0.000000 -32.862282
LeftUpLeg -29.448377 12.513447 -4.561387
LeftLeg 18.640441 -0.000000 -0.000000
LeftFoot -18.304115 11.691348 -15.751938
LeftToeBase 9.201974 -0.000000 -0.000000
RightUpLeg -33.702816 -3.180659 -10.861176
RightLeg 17.103968 -0.000000 -0.000000
RightFoot -10.657345 3.681873 19.609476
RightToeBase 13.047417 -0.000000 -0.000000
690
root 3.637335 35.907449 4.084577 -147.252040 -77.408469 173.933005
Spine -25.572507 -15.281638 -2.631878
Head 55.017047 -14.528879 -15.432829
LeftShoulder 17.033597 -4.769939 30.787693
LeftArm 107.962703 41.964303 -37.356247
LeftForeArm 5.911281 0.000000 92.694523
LeftHand -11.356404 0.000000 -11.186369
LeftHandThumb1 -26.253704 0.000000 33.147579
RightShoulder -33.047827 -75.895180 4.111655
RightArm 51.844489 -37.976233 12.235672
RightForeArm -6.418809 -0.000000 87.288014
RightHand -1.924207 -0.000000 35.065942
RightHandThumb1 -24.326973 -0.000000 -32.862282
LeftUpLeg -29.466917 12.492512 -4.579922
LeftLeg 18.648216 -0.000000 -0.000000
LeftFoot -18.299024 11.700971 -15.709786
LeftToeBase 9.192083 -0.000000 -0.000000
RightUpLeg -33.723346 -3.253203 -10.855010
RightLeg 17.123031 -0.000000 -0.000000
RightFoot -10.646614 3.732217 19.592633
RightToeBase 13.010434 -0.000000 -0.000000
691
root 3.635189 35.907167 4.091138 -147.183819 -77.416995 173.891746
Spine -25.631283 -15.266419 -2.564765
Head 55.044867 -14.549183 -15.410071
LeftShoulder 17.025084 -4.736455 30.780230
LeftArm 107.970613 41.985780 -37.316140
LeftForeArm 5.863535 -0.000000 92.692704
LeftHand -11.293161 -0.000000 -11.231527
LeftHandThumb1 -26.253704 0.000000 33.147579
RightShoulder -33.171958 -75.907933 4.206938
RightArm 51.906394 -37.852008 12.662212
RightForeArm -4.538258 -0.000000 88.848620
RightHand -2.112630 -0.000000 35.191652
RightHandThumb1 -24.326973 -0.000000 -32.862282
LeftUpLeg -29.488212 12.461783 -4.591727
LeftLeg 18.643058 -0.000000 -0.000000
LeftFoot -18.317798 11.683952 -15.741297
LeftToeBase 9.226306 -0.000000 -0.000000
RightUpLeg -33.744306 -3.318839 -10.847748
RightLeg 17.119685 -0.000000 -0.000000
RightFoot -10.637266 3.775826 19.585901
RightToeBase 13.085043 -0.000000 -0.000000
692
root 3.632001 35.906598 4.093201 -147.097549 -77.424691 173.817579
Spine -25.672374 -15.261411 -2.533537
Head 55.057544 -14.582587 -15.351376
LeftShoulder 17.016995 -4.715225 30.808225
LeftArm 107.987837 42.008810 -37.282241
LeftForeArm 5.843843 0.000000 92.697713
LeftHand -11.201544 -0.000000 -11.324493
LeftHandThumb1 -26.253704 0.000000 33.147579
RightShoulder -33.231921 -75.883582 4.266077
RightArm 51.893169 -37.737388 13.125243
RightForeArm -2.469499 -0.000000 90.295161
RightHand -2.293885 -0.000000 35.268382
RightHandThumb1 -24.326973 -0.000000 -32.862282
LeftUpLeg -29.501455 12.462277 -4.611792
LeftLeg 18.649075 -0.000000 -0.000000
LeftFoot -18.309946 11.654810 -15.746550
LeftToeBase 9.208133 -0.000000 -0.000000
RightUpLeg -33.745032 -3.357985 -10.851805
RightLeg 17.112565 -0.000000 -0.000000
RightFoot -10.640655 3.797857 19.604501
RightToeBase 13.056767 -0.000000 -0.000000
